<svg width="15" height="8" viewBox="0 0 15 8" fill="none" xmlns="http://www.w3.org/2000/svg">
<path d="M9.20546 6.2927L13.8332 1.7037C14.0069 1.51329 14.1001 1.26397 14.0934 1.00736C14.0868 0.750745 13.9808 0.506493 13.7974 0.325172C13.6141 0.143852 13.3674 0.0393515 13.1084 0.0333071C12.8495 0.0272628 12.5981 0.120137 12.4063 0.292702L7.77861 4.8787C7.58938 5.06617 7.33276 5.17149 7.06518 5.17149C6.79761 5.17149 6.54099 5.06617 6.35176 4.8787L1.72407 0.292702C1.53472 0.105194 1.27796 -9.37084e-05 1.01028 6.2582e-08C0.742599 9.38336e-05 0.485917 0.105562 0.296705 0.293202C0.107492 0.480843 0.00124754 0.735286 0.00134216 1.00056C0.00143678 1.26583 0.107863 1.52019 0.297209 1.7077L4.9249 6.2927C5.4926 6.85511 6.26246 7.17106 7.06518 7.17106C7.86791 7.17106 8.63777 6.85511 9.20546 6.2927V6.2927Z" fill="#A8A8A8"/>
</svg>
