<svg width="20" height="20" viewBox="0 0 20 20" fill="none" xmlns="http://www.w3.org/2000/svg">
<g clip-path="url(#clip0_4803_5719)">
<path d="M13.8549 2.41676C13.1991 1.86093 12.5116 1.27676 11.8116 0.640098C11.5463 0.398829 11.2315 0.218474 10.8891 0.111663C10.5468 0.00485306 10.1853 -0.0258296 9.82989 0.0217645C9.48551 0.0672591 9.15533 0.187874 8.86272 0.375078C8.57011 0.562281 8.32221 0.811498 8.13656 1.1051C7.14319 2.76508 6.44086 4.58264 6.05989 6.47926C5.91038 6.26342 5.77777 6.03636 5.66322 5.8001C5.54527 5.55159 5.36764 5.33613 5.14618 5.17296C4.92472 5.00978 4.66632 4.90396 4.39402 4.86493C4.12171 4.8259 3.84399 4.85488 3.58561 4.94927C3.32723 5.04367 3.09623 5.20056 2.91322 5.40593C1.51544 6.83431 0.740557 8.75833 0.758222 10.7568C0.738905 12.7982 1.40284 14.7874 2.6444 16.408C3.88596 18.0286 5.63381 19.1874 7.60989 19.7001C8.36642 19.8905 9.14313 19.9889 9.92322 19.9934C9.94822 19.9934 9.97239 20.0001 9.99739 20.0001C10.1066 20.0001 10.2141 19.9909 10.3216 19.9834C12.7146 19.9059 14.9835 18.9 16.6479 17.1788C18.3122 15.4575 19.2412 13.1561 19.2382 10.7618C19.2349 6.98676 16.7416 4.8701 13.8549 2.41676ZM10.1882 18.3118C10.0932 18.3118 9.99822 18.3218 9.90239 18.3209C9.28218 18.2738 8.69087 18.0396 8.20656 17.6493C7.84856 17.4076 7.54593 17.0927 7.31867 16.7254C7.09141 16.358 6.9447 15.9467 6.88822 15.5184C6.74656 14.1668 7.57989 12.3993 9.28239 10.4026C9.37058 10.2996 9.48015 10.217 9.60348 10.1606C9.72681 10.1042 9.86094 10.0753 9.99656 10.0759C10.1304 10.075 10.2627 10.1036 10.3842 10.1598C10.5056 10.216 10.6132 10.2983 10.6991 10.4009C12.2591 12.2526 13.1157 13.9609 13.1157 15.2118C13.1134 16.0036 12.8098 16.7649 12.2665 17.341C11.7232 17.917 10.9811 18.2647 10.1907 18.3134L10.1882 18.3118ZM14.6432 16.7359C14.5941 16.7743 14.5399 16.8051 14.4899 16.8418C14.6822 16.3192 14.7812 15.7669 14.7824 15.2101C14.7824 13.1043 13.2532 10.8476 11.9716 9.3251C11.7293 9.03818 11.4274 8.80754 11.0869 8.64922C10.7463 8.49091 10.3754 8.40874 9.99989 8.40843H9.99656C9.62024 8.40776 9.24828 8.48887 8.90641 8.64614C8.56453 8.80341 8.26091 9.03308 8.01656 9.31926V9.31926C5.97906 11.7059 5.04322 13.8501 5.23489 15.6926C5.2804 16.1203 5.38967 16.5389 5.55906 16.9343C4.5837 16.2275 3.79085 15.2985 3.24623 14.2242C2.70161 13.1499 2.42091 11.9612 2.42739 10.7568C2.41943 9.97099 2.56893 9.19157 2.86706 8.4645C3.16518 7.73743 3.60591 7.07743 4.16322 6.52343C4.35545 6.92304 4.58627 7.3029 4.85239 7.6576C5.03121 7.89936 5.27693 8.08344 5.55921 8.18711C5.84148 8.29077 6.14793 8.30949 6.44072 8.24093C6.73938 8.17486 7.01251 8.0237 7.2271 7.80572C7.44168 7.58773 7.58853 7.31226 7.64989 7.0126C7.98469 5.24291 8.62449 3.54487 9.54072 1.99426C9.5964 1.90672 9.67079 1.83262 9.75855 1.77729C9.8463 1.72195 9.94524 1.68677 10.0482 1.67426C10.1634 1.65877 10.2805 1.66872 10.3914 1.70343C10.5022 1.73813 10.6041 1.79673 10.6899 1.8751C11.4049 2.5251 12.1066 3.1251 12.7732 3.68926C15.5549 6.05176 17.5657 7.75843 17.5657 10.7618C17.5693 11.915 17.3078 13.0536 16.8015 14.0897C16.2952 15.1258 15.5577 16.0317 14.6457 16.7376L14.6432 16.7359Z" fill="#2DAF2D"/>
</g>
<defs>
<clipPath id="clip0_4803_5719">
<rect width="20" height="20" fill="white"/>
</clipPath>
</defs>
</svg>
