<svg width="176" height="19" viewBox="0 0 176 19" fill="none" xmlns="http://www.w3.org/2000/svg">
<path d="M-0.00292969 0.246094H11.8623V3.27344H3.65918V7.57031H11.252V10.5977H3.65918V14.8945H11.8867V17.9219H-0.00292969V0.246094ZM13.7178 17.9219L19.8457 0.246094H24.5576L30.6611 17.9219H26.7305L25.3999 13.8447H19.0034L17.6729 17.9219H13.7178ZM24.4722 10.9883L22.2627 4.22559H22.1406L19.9312 10.9883H24.4722ZM41.8428 5.2998C41.7695 4.59993 41.4644 4.05469 40.9272 3.66406C40.3901 3.27344 39.6781 3.07812 38.791 3.07812C38.1807 3.07812 37.6558 3.16764 37.2163 3.34668C36.785 3.51758 36.4554 3.75765 36.2275 4.06689C35.9997 4.37614 35.8857 4.73014 35.8857 5.12891C35.8857 5.69857 36.1421 6.1543 36.6548 6.49609C37.1675 6.83789 37.8551 7.10645 38.7178 7.30176L40.3047 7.69238C41.9404 8.05859 43.2303 8.66488 44.1743 9.51123C45.1265 10.3494 45.6025 11.4684 45.6025 12.8682C45.6025 13.9505 45.3299 14.8905 44.7847 15.688C44.2394 16.4774 43.4541 17.0877 42.4287 17.519C41.4033 17.9504 40.1826 18.166 38.7666 18.166C37.3343 18.166 36.0892 17.9463 35.0312 17.5068C33.9814 17.0674 33.1636 16.4204 32.5776 15.5659C31.9998 14.7033 31.6947 13.6494 31.6621 12.4043H35.2266C35.2835 13.2751 35.6253 13.9424 36.252 14.4062C36.8867 14.862 37.7087 15.0898 38.7178 15.0898C39.3525 15.0898 39.91 14.9963 40.3901 14.8091C40.8703 14.6219 41.2406 14.3615 41.501 14.0278C41.7614 13.6942 41.8916 13.3076 41.8916 12.8682C41.8916 12.2985 41.6434 11.8468 41.147 11.5132C40.6587 11.1795 39.8978 10.8825 38.8643 10.6221L36.9355 10.1582C33.7292 9.36882 32.126 7.76562 32.126 5.34863C32.126 4.29069 32.4108 3.35889 32.9805 2.55322C33.5583 1.73942 34.3558 1.11279 35.373 0.67334C36.3903 0.225749 37.5378 0.00195312 38.8154 0.00195312C40.1012 0.00195312 41.2365 0.225749 42.2212 0.67334C43.2059 1.12093 43.9709 1.74756 44.5161 2.55322C45.0614 3.35075 45.3421 4.26628 45.3584 5.2998H41.8428ZM51.0469 0.246094L55.124 7.86328H55.2949L59.3477 0.246094H63.4736L57.0283 11.623V17.9219H53.3662V11.623L46.9209 0.246094H51.0469ZM71.1396 0.246094H78.0732C79.3997 0.246094 80.535 0.482096 81.479 0.954102C82.4312 1.42611 83.1554 2.09749 83.6519 2.96826C84.1483 3.83089 84.3965 4.84408 84.3965 6.00781C84.3965 7.21224 84.1279 8.24577 83.5908 9.1084C83.0537 9.97103 82.2806 10.618 81.2715 11.0493L85.0312 17.9219H80.9785L77.5972 11.6475H74.8018V17.9219H71.1396V0.246094ZM77.3896 8.66895C79.5381 8.66895 80.6123 7.7819 80.6123 6.00781C80.6123 5.10449 80.3438 4.4209 79.8066 3.95703C79.2695 3.48503 78.4639 3.24902 77.3896 3.24902H74.8018V8.66895H77.3896ZM103.122 9.08398C103.122 10.9557 102.764 12.5793 102.048 13.9546C101.332 15.3218 100.347 16.3675 99.0938 17.0918C97.8486 17.8079 96.4408 18.166 94.8701 18.166C93.2913 18.166 91.8753 17.8039 90.6221 17.0796C89.3688 16.3553 88.3841 15.3096 87.668 13.9424C86.9518 12.5671 86.5938 10.9476 86.5938 9.08398C86.5938 7.21224 86.9518 5.59277 87.668 4.22559C88.3841 2.85026 89.3688 1.80452 90.6221 1.08838C91.8753 0.364095 93.2913 0.00195312 94.8701 0.00195312C96.4408 0.00195312 97.8486 0.364095 99.0938 1.08838C100.347 1.80452 101.332 2.85026 102.048 4.22559C102.764 5.59277 103.122 7.21224 103.122 9.08398ZM99.3867 9.08398C99.3867 7.83887 99.1995 6.78092 98.8252 5.91016C98.459 5.03939 97.9382 4.38021 97.2627 3.93262C96.5872 3.47689 95.7897 3.24902 94.8701 3.24902C93.9505 3.24902 93.1489 3.47689 92.4653 3.93262C91.7899 4.38021 91.265 5.04346 90.8906 5.92236C90.5163 6.79313 90.3291 7.84701 90.3291 9.08398C90.3291 10.321 90.5163 11.3789 90.8906 12.2578C91.265 13.1286 91.7899 13.7918 92.4653 14.2476C93.1489 14.6951 93.9505 14.9189 94.8701 14.9189C95.7897 14.9189 96.5872 14.6951 97.2627 14.2476C97.9382 13.7918 98.459 13.1286 98.8252 12.2578C99.1995 11.387 99.3867 10.3291 99.3867 9.08398ZM120.383 0.246094V11.7207C120.383 12.9984 120.078 14.1255 119.467 15.1021C118.857 16.0786 117.998 16.8354 116.892 17.3726C115.785 17.9015 114.507 18.166 113.059 18.166C111.61 18.166 110.332 17.9015 109.226 17.3726C108.127 16.8354 107.272 16.0786 106.662 15.1021C106.06 14.1255 105.759 12.9984 105.759 11.7207V0.246094H109.421V11.4277C109.421 12.1032 109.571 12.7095 109.873 13.2466C110.174 13.7756 110.601 14.1906 111.154 14.4917C111.708 14.7928 112.342 14.9434 113.059 14.9434C113.783 14.9434 114.422 14.7928 114.975 14.4917C115.528 14.1906 115.952 13.7756 116.245 13.2466C116.546 12.7095 116.696 12.1032 116.696 11.4277V0.246094H120.383ZM122.678 0.246094H137.155V3.27344H131.735V17.9219H128.098V3.27344H122.678V0.246094ZM143.088 17.9219H139.426V0.246094H143.088V17.9219ZM160.812 17.9219H157.639L149.875 6.69141H149.729V17.9219H146.066V0.246094H149.289L157.004 11.4766H157.175V0.246094H160.812V17.9219ZM163.791 0.246094H175.656V3.27344H167.453V7.57031H175.046V10.5977H167.453V14.8945H175.681V17.9219H163.791V0.246094Z" fill="#82B1FF"/>
</svg>
